<svg xmlns="http://www.w3.org/2000/svg" viewBox="0 0 586 731" width="586" height="731" role="img" aria-label="Parent Data Force bolt">
  <path d="M 560.0,0.0 L 584.0,20.0 L 585.0,23.0 L 580.0,29.0 L 575.0,46.0 L 567.0,52.0 L 559.0,64.0 L 544.0,76.0 L 526.0,95.0 L 522.0,102.0 L 512.0,135.0 L 486.0,161.0 L 462.0,192.0 L 412.0,219.0 L 379.0,250.0 L 372.0,264.0 L 359.0,321.0 L 358.0,332.0 L 306.0,401.0 L 292.0,413.0 L 254.0,433.0 L 233.0,440.0 L 215.0,454.0 L 205.0,468.0 L 178.0,519.0 L 171.0,529.0 L 164.0,546.0 L 162.0,563.0 L 128.0,596.0 L 92.0,620.0 L 82.0,630.0 L 72.0,645.0 L 62.0,667.0 L 32.0,697.0 L 31.0,708.0 L 20.0,718.0 L 15.0,730.0 L 2.0,721.0 L 0.0,718.0 L 11.0,693.0 L 18.0,686.0 L 37.0,677.0 L 47.0,668.0 L 57.0,644.0 L 81.0,608.0 L 110.0,593.0 L 139.0,567.0 L 145.0,556.0 L 150.0,535.0 L 177.0,488.0 L 199.0,443.0 L 204.0,437.0 L 244.0,414.0 L 282.0,395.0 L 290.0,389.0 L 298.0,379.0 L 335.0,327.0 L 344.0,278.0 L 358.0,235.0 L 365.0,227.0 L 395.0,203.0 L 419.0,190.0 L 453.0,168.0 L 484.0,135.0 L 495.0,119.0 L 510.0,75.0 L 537.0,41.0 L 539.0,38.0 L 541.0,25.0 L 552.0,14.0 L 558.0,1.0 L 560.0,0.0 Z" fill="#ff5a1f"/>
</svg>
